# xmcd
#
# Track frame offsets:
#	150
#	18318
#	36339
#	54639
#	74857
#	91279
#	108127
#	124951
#	142960
#	171373
#	188267
#	212302
#	238632
#	258296
#	278053
#	298827
#	317707
#	335064
#
# Disc length: 4682 seconds
#
# Revision: 20
# Processed by: cddbd v1.5.2PL0 Copyright (c) Steve Scherf et al.
# Submitted via: EasyCDDAExtractor 15.3.0.1
#
DISCID=0d124812
DTITLE=Madonna - Celebration (Deluxe Edition) - CD 2
DYEAR=2009
DGENRE=Pop
TTITLE0=Dress You Up
TTITLE1=Material Girl
TTITLE2=La Isla Bonita
TTITLE3=Papa Don't Preach
TTITLE4=Lucky Star
TTITLE5=Burning Up
TTITLE6=Crazy For You
TTITLE7=Who's That Girl
TTITLE8=Frozen
TTITLE9=Miles Away
TTITLE10=Take A Bow
TTITLE11=Live To Tell
TTITLE12=Beautiful Stranger
TTITLE13=Hollywood
TTITLE14=Die Another Day
TTITLE15=Don't Tell Me
TTITLE16=Cherish
TTITLE17=Celebration
EXTD=YEAR: 2009
EXTT0=
EXTT1=
EXTT2=
EXTT3=
EXTT4=
EXTT5=
EXTT6=
EXTT7=
EXTT8=
EXTT9=
EXTT10=
EXTT11=
EXTT12=
EXTT13=
EXTT14=
EXTT15=
EXTT16=
EXTT17=
PLAYORDER=
